<?xml version="1.0" standalone="no"?>
<!DOCTYPE svg PUBLIC "-//W3C//DTD SVG 20010904//EN"
 "http://www.w3.org/TR/2001/REC-SVG-20010904/DTD/svg10.dtd">
<svg version="1.0" xmlns="http://www.w3.org/2000/svg"
 width="1965.000000pt" height="1965.000000pt" viewBox="0 0 1965.000000 1965.000000"
 preserveAspectRatio="xMidYMid meet">
<metadata>
Created by potrace 1.11, written by Peter Selinger 2001-2013
</metadata>
<g transform="translate(0.000000,1965.000000) scale(0.100000,-0.100000)"
fill="#000000" stroke="none">
<path d="M9480 11651 c-77 -24 -126 -72 -150 -144 -9 -29 -12 -417 -11 -1675
0 -900 2 -1646 5 -1657 16 -71 68 -133 134 -159 49 -18 272 -23 332 -6 48 13
106 63 132 113 l22 42 1 1645 c1 1810 5 1707 -61 1780 -51 56 -102 70 -253 69
-69 0 -137 -4 -151 -8z"/>
<path d="M7918 11144 c-2 -1 -34 -5 -73 -8 -178 -16 -236 -41 -279 -124 -24
-46 -24 -56 -25 -322 l-1 -245 -108 0 c-130 -1 -172 -18 -214 -86 -33 -54 -38
-79 -39 -197 0 -113 13 -162 53 -208 53 -60 99 -77 210 -78 l98 -1 1 -555 c0
-305 2 -571 4 -591 10 -122 70 -284 139 -379 136 -187 326 -299 571 -337 65
-10 277 -10 335 0 140 25 221 113 215 233 -3 75 -49 211 -82 246 -33 34 -120
76 -187 89 -28 6 -72 14 -98 19 -96 19 -162 91 -188 205 -8 34 -12 212 -12
545 0 272 1 502 1 511 1 13 15 16 94 14 145 -3 196 19 237 103 19 37 24 68 28
148 6 127 -8 189 -54 242 -47 55 -104 75 -215 76 -52 1 -89 5 -90 11 0 6 -1
127 -3 270 -2 245 -3 262 -23 301 -29 54 -83 101 -133 114 -34 9 -154 12 -162
4z"/>
<path d="M14038 11145 c-2 -1 -35 -5 -73 -9 -135 -12 -171 -21 -216 -52 -37
-25 -75 -83 -83 -125 -3 -13 -5 -134 -5 -269 l-1 -245 -108 0 c-123 -1 -171
-18 -209 -75 -34 -48 -43 -94 -43 -205 0 -120 11 -164 52 -211 52 -59 99 -77
208 -78 l95 -2 2 -64 c2 -36 4 -308 6 -605 2 -357 7 -550 14 -570 6 -16 16
-50 24 -75 32 -114 102 -226 200 -321 167 -162 368 -234 649 -234 161 1 224
14 294 63 45 31 86 108 86 161 0 57 -51 218 -81 254 -32 39 -118 83 -191 98
-29 5 -74 14 -100 19 -96 19 -162 90 -188 205 -8 34 -12 205 -12 535 0 267 1
497 1 511 l1 25 93 -1 c118 -1 157 9 202 53 48 48 65 111 63 237 -2 203 -71
276 -265 279 l-95 2 -2 270 c-2 253 -3 271 -23 309 -46 87 -110 123 -220 123
-39 0 -73 -1 -75 -3z"/>
<path d="M15969 11146 c-2 -2 -40 -7 -84 -10 -89 -8 -130 -14 -160 -23 -41
-12 -92 -55 -116 -96 -23 -41 -24 -49 -29 -307 l-5 -265 -106 -1 c-121 0 -168
-17 -206 -74 -34 -48 -43 -94 -43 -205 0 -120 11 -164 52 -211 52 -59 99 -77
208 -78 l95 -2 2 -69 c2 -39 4 -306 6 -595 2 -289 6 -534 9 -545 4 -11 11 -42
18 -69 37 -164 175 -355 323 -449 60 -38 162 -87 180 -87 7 0 17 -4 22 -9 25
-23 194 -46 335 -45 204 0 282 26 341 114 49 73 50 115 4 264 -22 75 -31 89
-70 121 -47 39 -160 84 -210 85 -86 1 -170 48 -208 118 -47 86 -49 116 -49
632 0 267 1 497 1 511 l1 25 93 -1 c118 -1 158 9 202 53 45 45 63 106 64 216
1 122 -13 177 -57 226 -49 55 -112 76 -221 75 -66 -1 -81 2 -82 15 0 8 -1 130
-3 270 -2 240 -3 257 -23 296 -28 53 -82 100 -130 113 -36 10 -145 15 -154 7z"/>
<path d="M2748 10455 c-2 -2 -26 -6 -54 -9 -170 -18 -355 -87 -519 -194 -87
-57 -267 -235 -325 -322 -99 -147 -172 -341 -199 -527 -14 -93 -6 -362 13
-448 63 -286 182 -484 420 -700 100 -91 306 -194 468 -235 117 -29 179 -35
353 -34 232 2 399 41 581 138 234 125 429 333 537 573 77 172 102 303 102 538
0 185 -23 310 -82 459 -108 272 -320 504 -579 634 -94 48 -259 100 -363 115
-81 13 -343 21 -353 12z m332 -634 c90 -31 156 -71 218 -131 90 -87 161 -215
180 -324 9 -51 8 -261 0 -299 -51 -220 -200 -389 -398 -451 -83 -26 -215 -38
-284 -25 -23 4 -54 9 -71 12 -45 7 -114 37 -170 73 -141 90 -240 245 -273 425
-9 49 -8 176 2 245 9 59 41 148 78 212 34 61 169 202 192 202 8 0 16 3 18 8 5
12 103 54 159 67 86 20 271 12 349 -14z"/>
<path d="M4676 10425 c-58 -21 -88 -46 -118 -101 l-27 -49 0 -720 c0 -421 4
-745 10 -780 23 -140 68 -255 146 -375 147 -223 339 -346 608 -388 87 -14 328
-7 395 12 85 23 208 82 293 139 l67 45 0 -59 c0 -72 17 -102 70 -123 63 -25
95 -28 280 -28 141 0 184 4 218 17 51 21 104 80 120 134 9 29 12 313 12 1079
l0 1040 -28 54 c-20 38 -41 61 -77 83 l-48 30 -196 0 c-173 0 -200 -2 -231
-19 -44 -24 -72 -52 -96 -96 -18 -33 -19 -71 -22 -743 l-3 -709 -33 -51 c-97
-152 -228 -232 -361 -220 -70 6 -180 40 -228 70 -57 36 -113 98 -142 157 -52
106 -54 141 -55 806 0 411 -4 628 -11 655 -16 57 -53 100 -112 130 -49 24 -58
25 -221 25 -121 -1 -183 -5 -210 -15z"/>
<path d="M11629 10436 c-2 -2 -33 -6 -69 -10 -143 -13 -329 -77 -464 -159
-452 -275 -650 -802 -519 -1382 90 -396 400 -720 803 -836 36 -11 85 -22 110
-25 25 -3 59 -9 77 -14 18 -4 121 -7 230 -5 182 3 242 7 299 20 12 2 38 7 60
11 191 30 442 154 492 243 29 52 31 123 4 183 -26 61 -197 231 -247 248 -52
17 -130 8 -199 -25 -160 -74 -282 -103 -431 -103 -253 0 -427 113 -491 320
-10 32 -15 61 -11 64 4 4 337 7 739 7 810 0 787 -2 852 63 58 58 69 104 63
251 -15 352 -123 616 -342 837 -110 112 -267 209 -413 255 -69 21 -81 24 -152
37 -19 4 -44 9 -55 11 -26 6 -330 15 -336 9z m271 -591 c112 -30 216 -96 267
-170 40 -58 73 -189 50 -197 -6 -2 -217 -4 -467 -4 l-455 1 -1 25 c0 37 20
109 44 156 39 76 154 156 272 189 62 18 223 18 290 0z"/>
<path d="M17545 8675 c-190 -45 -293 -210 -255 -412 32 -167 172 -264 375
-259 101 2 173 29 240 88 104 91 137 267 75 403 -65 142 -258 222 -435 180z"/>
</g>
</svg>
